<svg width="66" height="22" viewBox="0 0 66 22" fill="none" xmlns="http://www.w3.org/2000/svg">
<path d="M14.0918 17.8564L0 11.6162V10.2246L14.0918 3.25195V5.41992L2.63672 10.8252L14.0918 15.7031V17.8564ZM31.2891 21.3867L28.4326 12.041C28.3057 11.6406 28.1836 11.25 28.0664 10.8691C27.959 10.4785 27.8564 10.1074 27.7588 9.75586C27.6709 9.39453 27.5879 9.0625 27.5098 8.75977C27.4414 8.44727 27.3828 8.17871 27.334 7.9541H27.2314C27.1924 8.17871 27.1387 8.44727 27.0703 8.75977C27.002 9.0625 26.9189 9.39453 26.8213 9.75586C26.7334 10.1172 26.6357 10.498 26.5283 10.8984C26.4209 11.2891 26.2988 11.6846 26.1621 12.085L23.1738 21.3867H20.4346L16.0107 5.33203H18.5303L20.8447 14.1943C21.001 14.7803 21.1475 15.3613 21.2842 15.9375C21.4307 16.5039 21.5527 17.041 21.6504 17.5488C21.7578 18.0469 21.8359 18.4814 21.8848 18.8525H22.002C22.0605 18.6084 22.124 18.3154 22.1924 17.9736C22.2705 17.6318 22.3535 17.2705 22.4414 16.8896C22.5391 16.499 22.6416 16.1133 22.749 15.7324C22.8564 15.3418 22.9639 14.9756 23.0713 14.6338L26.0303 5.33203H28.6523L31.5088 14.6191C31.6553 15.0879 31.7969 15.5762 31.9336 16.084C32.0801 16.5918 32.2119 17.085 32.3291 17.5635C32.4463 18.0322 32.5293 18.4521 32.5781 18.8232H32.6953C32.7344 18.4912 32.8076 18.0811 32.915 17.5928C33.0225 17.1045 33.1445 16.5674 33.2812 15.9814C33.4277 15.3955 33.5791 14.7998 33.7354 14.1943L36.0791 5.33203H38.5547L34.1162 21.3867H31.2891ZM49.5996 0L41.6309 21.416H39.2285L47.2119 0H49.5996ZM51.4453 15.7031L62.915 10.8545L51.4453 5.41992V3.25195L65.5371 10.2246V11.6162L51.4453 17.8564V15.7031Z" fill="url(#paint0_linear_6_12)"/>
<defs>
<linearGradient id="paint0_linear_6_12" x1="32.7979" y1="-4.58398" x2="32.7979" y2="23.416" gradientUnits="userSpaceOnUse">
<stop stop-color="#ABABAB"/>
<stop offset="1" stop-color="#9B9B9B"/>
</linearGradient>
</defs>
</svg>
